<?xml version="1.0" encoding="utf-8"?>
<!-- Web Goes Green 1.0 free by @webgoesgreen - https://webgoesgreen.com License - https://webgoesgreen.com/license (Commercial License) Copyright 2023 Web Goes Green, Inc. -->
<svg version="1.1" id="Calque_1" xmlns="http://www.w3.org/2000/svg" xmlns:xlink="http://www.w3.org/1999/xlink" x="0px" y="0px"
	 viewBox="0 0 72 68.4" style="enable-background:new 0 0 72 68.4;" xml:space="preserve">
<g>
	<g>
		<path style="fill:#8DD08A;" d="M38.8,34.9c-0.1,0.5-0.4,1-0.8,1.3l16.1,16.1c0.2,0.3,0.3,0.5,0.5,0.8c1.8,3.2,0.7,7.3-2.5,9.1
			c-3.2,1.8-7.3,0.8-9.1-2.4c-0.2-0.3-0.3-0.5-0.4-0.8v-0.1L42.1,57v-0.2l-0.1-0.1L36.7,37c-0.3,0.1-0.5,0.1-0.8,0.1
			c-0.3,0-0.5-0.1-0.8-0.1l-5.4,20.3l-0.4,1.7c-0.1,0.3-0.2,0.5-0.4,0.8c-1.9,3.2-5.9,4.2-9.1,2.4c-3.2-1.8-4.3-5.9-2.4-9.1
			c0.2-0.3,0.3-0.5,0.5-0.8l0.6-0.7l15.4-15.4c-0.4-0.3-0.7-0.8-0.8-1.3l-20.2,5.4l-1.7,0.5h-0.1c-0.2,0.1-0.5,0.1-0.8,0.1
			c-3.7,0-6.7-3-6.7-6.7c0-3.6,3-6.7,6.7-6.7c0.3,0,0.6,0,0.9,0.1h0.1l0.1,0.1l1.2,0.3l0.3,0.1l20.2,5.3c0.1-0.5,0.4-0.9,0.8-1.3
			l-15-15l-0.8-0.8c-1.8-2.1-2.1-5.1-0.7-7.6c1.8-3.2,5.9-4.3,9.1-2.4c1.3,0.8,2.3,1.9,2.9,3.2v0.1l0.4,1.7l5.4,20.2
			c0.3-0.1,0.5-0.1,0.8-0.1c0.3,0,0.5,0.1,0.8,0.1l5.5-20.3v-0.2l0.4-1.4c1-2.4,3.4-4.1,6.2-4.1c3.7,0,6.7,3,6.7,6.7
			c0,1.5-0.5,2.9-1.3,4L38,32.1c0.4,0.3,0.7,0.8,0.8,1.3L59.1,28l1.7-0.4c2.6-0.3,5.2,0.9,6.6,3.3c1.9,3.2,0.8,7.3-2.4,9.1
			c-1.3,0.7-2.6,1-4,0.9h-0.1L38.8,34.9z"/>
	</g>
</g>
</svg>
